# xmcd
#
# Track frame offsets: 
#        150
#        15812
#        32036
#        48804
#        66301
#        83790
#        103117
#        118740
#        133968
#        150301
#        164365
#
# Disc length: 2371 seconds
#
# Revision: 0
# Processed by: cddbd v1.5.2PL0 Copyright (c) Steve Scherf et al.
# Submitted via: ExactAudioCopy v1.3
#
DISCID=8409410b
DTITLE=Paulo Mendonca - Mindcontrol
DYEAR=2019
DGENRE=Blues
TTITLE0=Mindcontrol
TTITLE1=Preacher
TTITLE2=Hell No
TTITLE3=Peaches And Cream
TTITLE4=Celebration
TTITLE5=King 4 A Day
TTITLE6=Paradise
TTITLE7=Too Funky in Here
TTITLE8=Reach 4 the Sky
TTITLE9=Going Up
TTITLE10=Rewind
EXTD=
EXTT0=
EXTT1=
EXTT2=
EXTT3=
EXTT4=
EXTT5=
EXTT6=
EXTT7=
EXTT8=
EXTT9=
EXTT10=
PLAYORDER=
